<svg xmlns="http://www.w3.org/2000/svg" version="1.1" xmlns:xlink="http://www.w3.org/1999/xlink" xmlns:svgjs="http://svgjs.dev/svgjs" width="1440" height="1000" preserveAspectRatio="none" viewBox="0 0 1440 1000"><g mask="url(&quot;#SvgjsMask1602&quot;)" fill="none"><rect width="1440" height="1000" x="0" y="0" fill="rgba(34, 39, 45, 1)"></rect><g mask="url(&quot;#SvgjsMask1603&quot;)"><path d="M-15.5 511.5L15.5 511.5L46.5 511.5" stroke="rgba(255, 0, 42, 1)" stroke-width="5.17"></path><path d="M38.75 511.5 a7.75 7.75 0 1 0 15.5 0 a7.75 7.75 0 1 0 -15.5 0z" fill="rgba(255, 0, 42, 1)"></path><path d="M77.5 480.5L108.5 511.5L139.5 511.5M201.5 511.5L232.5 511.5M139.5 480.5L170.5 480.5M-15.5 480.5L15.5 480.5L46.5 480.5L77.5 480.5L108.5 480.5L139.5 480.5L170.5 511.5L201.5 511.5L232.5 480.5L263.5 480.5L294.5 480.5L325.5 480.5L356.5 480.5L387.5 480.5L418.5 480.5" stroke="rgba(70, 238, 4, 1)" stroke-width="5.17"></path><path d="M410.75 480.5 a7.75 7.75 0 1 0 15.5 0 a7.75 7.75 0 1 0 -15.5 0zM131.75 511.5 a7.75 7.75 0 1 0 15.5 0 a7.75 7.75 0 1 0 -15.5 0zM224.75 511.5 a7.75 7.75 0 1 0 15.5 0 a7.75 7.75 0 1 0 -15.5 0zM162.75 480.5 a7.75 7.75 0 1 0 15.5 0 a7.75 7.75 0 1 0 -15.5 0z" fill="rgba(70, 238, 4, 1)"></path><path d="M1100.5 480.5L1131.5 511.5L1162.5 511.5L1193.5 511.5L1224.5 511.5L1255.5 511.5M356.5 511.5L387.5 542.5L418.5 542.5M325.5 511.5L356.5 542.5M1162.5 480.5L1193.5 449.5M976.5 542.5L1007.5 511.5L1038.5 511.5L1069.5 480.5L1100.5 449.5L1131.5 418.5L1162.5 418.5L1193.5 418.5L1224.5 418.5L1255.5 418.5M914.5 542.5L945.5 511.5L976.5 511.5L1007.5 480.5L1038.5 480.5L1069.5 449.5L1100.5 418.5L1131.5 387.5L1162.5 387.5L1193.5 387.5L1224.5 387.5L1255.5 387.5M883.5 542.5L914.5 573.5L945.5 573.5M480.5 542.5L511.5 511.5M1131.5 480.5L1162.5 449.5M418.5 511.5L449.5 511.5L480.5 511.5M-15.5 542.5L15.5 542.5L46.5 542.5L77.5 542.5L108.5 542.5L139.5 542.5L170.5 542.5L201.5 542.5L232.5 542.5L263.5 511.5L294.5 511.5L325.5 511.5L356.5 511.5L387.5 511.5L418.5 511.5L449.5 542.5L480.5 542.5L511.5 542.5L542.5 542.5L573.5 542.5L604.5 542.5L635.5 542.5L666.5 542.5L697.5 542.5L728.5 542.5L759.5 542.5L790.5 542.5L821.5 542.5L852.5 542.5L883.5 542.5L914.5 542.5L945.5 542.5L976.5 542.5L1007.5 542.5L1038.5 542.5L1069.5 511.5L1100.5 480.5L1131.5 480.5L1162.5 480.5L1193.5 480.5L1224.5 480.5" stroke="rgba(255, 0, 42, 1)" stroke-width="5.17"></path><path d="M1216.75 480.5 a7.75 7.75 0 1 0 15.5 0 a7.75 7.75 0 1 0 -15.5 0zM1247.75 511.5 a7.75 7.75 0 1 0 15.5 0 a7.75 7.75 0 1 0 -15.5 0zM410.75 542.5 a7.75 7.75 0 1 0 15.5 0 a7.75 7.75 0 1 0 -15.5 0zM348.75 542.5 a7.75 7.75 0 1 0 15.5 0 a7.75 7.75 0 1 0 -15.5 0zM1185.75 449.5 a7.75 7.75 0 1 0 15.5 0 a7.75 7.75 0 1 0 -15.5 0zM1247.75 418.5 a7.75 7.75 0 1 0 15.5 0 a7.75 7.75 0 1 0 -15.5 0zM1247.75 387.5 a7.75 7.75 0 1 0 15.5 0 a7.75 7.75 0 1 0 -15.5 0zM937.75 573.5 a7.75 7.75 0 1 0 15.5 0 a7.75 7.75 0 1 0 -15.5 0zM503.75 511.5 a7.75 7.75 0 1 0 15.5 0 a7.75 7.75 0 1 0 -15.5 0zM1154.75 449.5 a7.75 7.75 0 1 0 15.5 0 a7.75 7.75 0 1 0 -15.5 0zM472.75 511.5 a7.75 7.75 0 1 0 15.5 0 a7.75 7.75 0 1 0 -15.5 0z" fill="rgba(255, 0, 42, 1)"></path><path d="M511.5 480.5L542.5 480.5L573.5 480.5L604.5 480.5L635.5 480.5L666.5 480.5M759.5 511.5L790.5 480.5L821.5 480.5M232.5 449.5L263.5 418.5M325.5 449.5L356.5 418.5L387.5 418.5M449.5 449.5L480.5 418.5L511.5 418.5L542.5 418.5M170.5 449.5L201.5 418.5L232.5 418.5M294.5 449.5L325.5 418.5M-15.5 449.5L15.5 449.5L46.5 449.5L77.5 449.5L108.5 449.5L139.5 449.5L170.5 449.5L201.5 449.5L232.5 449.5L263.5 449.5L294.5 449.5L325.5 449.5L356.5 449.5L387.5 449.5L418.5 449.5L449.5 449.5L480.5 449.5L511.5 480.5L542.5 511.5L573.5 511.5L604.5 511.5L635.5 511.5L666.5 511.5L697.5 511.5L728.5 511.5L759.5 511.5L790.5 511.5L821.5 511.5L852.5 511.5L883.5 511.5" stroke="rgba(3, 75, 219, 1)" stroke-width="5.17"></path><path d="M875.75 511.5 a7.75 7.75 0 1 0 15.5 0 a7.75 7.75 0 1 0 -15.5 0zM658.75 480.5 a7.75 7.75 0 1 0 15.5 0 a7.75 7.75 0 1 0 -15.5 0zM813.75 480.5 a7.75 7.75 0 1 0 15.5 0 a7.75 7.75 0 1 0 -15.5 0zM255.75 418.5 a7.75 7.75 0 1 0 15.5 0 a7.75 7.75 0 1 0 -15.5 0zM379.75 418.5 a7.75 7.75 0 1 0 15.5 0 a7.75 7.75 0 1 0 -15.5 0zM534.75 418.5 a7.75 7.75 0 1 0 15.5 0 a7.75 7.75 0 1 0 -15.5 0zM224.75 418.5 a7.75 7.75 0 1 0 15.5 0 a7.75 7.75 0 1 0 -15.5 0zM317.75 418.5 a7.75 7.75 0 1 0 15.5 0 a7.75 7.75 0 1 0 -15.5 0z" fill="rgba(3, 75, 219, 1)"></path><path d="M728.5 573.5L759.5 604.5L790.5 604.5L821.5 604.5M697.5 573.5L728.5 604.5L759.5 635.5L790.5 635.5L821.5 635.5L852.5 635.5L883.5 635.5L914.5 635.5L945.5 635.5L976.5 635.5L1007.5 635.5L1038.5 635.5L1069.5 635.5M294.5 573.5L325.5 542.5M263.5 573.5L294.5 542.5M-15.5 573.5L15.5 573.5L46.5 573.5L77.5 573.5L108.5 573.5L139.5 573.5L170.5 573.5L201.5 573.5L232.5 573.5L263.5 573.5L294.5 573.5L325.5 573.5L356.5 573.5L387.5 573.5L418.5 573.5L449.5 573.5L480.5 573.5L511.5 573.5L542.5 573.5L573.5 573.5L604.5 573.5L635.5 573.5L666.5 573.5L697.5 573.5L728.5 573.5L759.5 573.5L790.5 573.5L821.5 573.5L852.5 573.5" stroke="rgba(191, 238, 4, 1)" stroke-width="5.17"></path><path d="M844.75 573.5 a7.75 7.75 0 1 0 15.5 0 a7.75 7.75 0 1 0 -15.5 0zM813.75 604.5 a7.75 7.75 0 1 0 15.5 0 a7.75 7.75 0 1 0 -15.5 0zM1061.75 635.5 a7.75 7.75 0 1 0 15.5 0 a7.75 7.75 0 1 0 -15.5 0zM317.75 542.5 a7.75 7.75 0 1 0 15.5 0 a7.75 7.75 0 1 0 -15.5 0zM286.75 542.5 a7.75 7.75 0 1 0 15.5 0 a7.75 7.75 0 1 0 -15.5 0z" fill="rgba(191, 238, 4, 1)"></path><path d="M1007.5 356.5L1038.5 325.5L1069.5 325.5L1100.5 325.5L1131.5 325.5L1162.5 325.5M325.5 387.5L356.5 356.5L387.5 356.5L418.5 356.5L449.5 325.5L480.5 325.5L511.5 356.5L542.5 356.5L573.5 356.5L604.5 325.5L635.5 325.5M1193.5 356.5L1224.5 325.5L1255.5 325.5M945.5 356.5L976.5 387.5L1007.5 387.5M139.5 418.5L170.5 418.5M976.5 356.5L1007.5 325.5M883.5 387.5L914.5 418.5L945.5 418.5L976.5 418.5L1007.5 449.5M852.5 387.5L883.5 356.5L914.5 356.5L945.5 325.5L976.5 325.5L1007.5 294.5L1038.5 294.5L1069.5 294.5L1100.5 294.5L1131.5 294.5L1162.5 294.5L1193.5 294.5M914.5 387.5L945.5 387.5M728.5 387.5L759.5 356.5L790.5 325.5L821.5 325.5L852.5 325.5L883.5 325.5L914.5 325.5L945.5 294.5M-15.5 418.5L15.5 418.5L46.5 418.5L77.5 418.5L108.5 418.5L139.5 418.5L170.5 387.5L201.5 387.5L232.5 387.5L263.5 387.5L294.5 387.5L325.5 387.5L356.5 387.5L387.5 387.5L418.5 387.5L449.5 387.5L480.5 387.5L511.5 387.5L542.5 387.5L573.5 387.5L604.5 387.5L635.5 387.5L666.5 387.5L697.5 387.5L728.5 387.5L759.5 387.5L790.5 387.5L821.5 387.5L852.5 387.5L883.5 387.5L914.5 387.5L945.5 356.5L976.5 356.5L1007.5 356.5L1038.5 356.5L1069.5 356.5L1100.5 356.5L1131.5 356.5L1162.5 356.5L1193.5 356.5L1224.5 356.5" stroke="rgba(3, 75, 219, 1)" stroke-width="5.17"></path><path d="M1216.75 356.5 a7.75 7.75 0 1 0 15.5 0 a7.75 7.75 0 1 0 -15.5 0zM1154.75 325.5 a7.75 7.75 0 1 0 15.5 0 a7.75 7.75 0 1 0 -15.5 0zM627.75 325.5 a7.75 7.75 0 1 0 15.5 0 a7.75 7.75 0 1 0 -15.5 0zM1247.75 325.5 a7.75 7.75 0 1 0 15.5 0 a7.75 7.75 0 1 0 -15.5 0zM999.75 387.5 a7.75 7.75 0 1 0 15.5 0 a7.75 7.75 0 1 0 -15.5 0zM162.75 418.5 a7.75 7.75 0 1 0 15.5 0 a7.75 7.75 0 1 0 -15.5 0zM999.75 325.5 a7.75 7.75 0 1 0 15.5 0 a7.75 7.75 0 1 0 -15.5 0zM999.75 449.5 a7.75 7.75 0 1 0 15.5 0 a7.75 7.75 0 1 0 -15.5 0zM1185.75 294.5 a7.75 7.75 0 1 0 15.5 0 a7.75 7.75 0 1 0 -15.5 0zM937.75 387.5 a7.75 7.75 0 1 0 15.5 0 a7.75 7.75 0 1 0 -15.5 0zM937.75 294.5 a7.75 7.75 0 1 0 15.5 0 a7.75 7.75 0 1 0 -15.5 0z" fill="rgba(3, 75, 219, 1)"></path><path d="M201.5 604.5L232.5 635.5L263.5 635.5L294.5 635.5M387.5 604.5L418.5 635.5L449.5 635.5M542.5 604.5L573.5 635.5L604.5 635.5L635.5 635.5M170.5 604.5L201.5 635.5M139.5 604.5L170.5 635.5M-15.5 604.5L15.5 604.5L46.5 604.5L77.5 604.5L108.5 604.5L139.5 604.5L170.5 604.5L201.5 604.5L232.5 604.5L263.5 604.5L294.5 604.5L325.5 604.5L356.5 604.5L387.5 604.5L418.5 604.5L449.5 604.5L480.5 604.5L511.5 604.5L542.5 604.5L573.5 604.5L604.5 604.5L635.5 604.5L666.5 604.5" stroke="rgba(191, 238, 4, 1)" stroke-width="5.17"></path><path d="M658.75 604.5 a7.75 7.75 0 1 0 15.5 0 a7.75 7.75 0 1 0 -15.5 0zM286.75 635.5 a7.75 7.75 0 1 0 15.5 0 a7.75 7.75 0 1 0 -15.5 0zM441.75 635.5 a7.75 7.75 0 1 0 15.5 0 a7.75 7.75 0 1 0 -15.5 0zM627.75 635.5 a7.75 7.75 0 1 0 15.5 0 a7.75 7.75 0 1 0 -15.5 0zM193.75 635.5 a7.75 7.75 0 1 0 15.5 0 a7.75 7.75 0 1 0 -15.5 0zM162.75 635.5 a7.75 7.75 0 1 0 15.5 0 a7.75 7.75 0 1 0 -15.5 0z" fill="rgba(191, 238, 4, 1)"></path><path d="M46.5 387.5L77.5 356.5L108.5 356.5M-15.5 387.5L15.5 387.5L46.5 387.5L77.5 387.5L108.5 387.5L139.5 387.5L170.5 356.5L201.5 356.5L232.5 356.5L263.5 356.5" stroke="rgba(191, 238, 4, 1)" stroke-width="5.17"></path><path d="M255.75 356.5 a7.75 7.75 0 1 0 15.5 0 a7.75 7.75 0 1 0 -15.5 0zM100.75 356.5 a7.75 7.75 0 1 0 15.5 0 a7.75 7.75 0 1 0 -15.5 0z" fill="rgba(191, 238, 4, 1)"></path><path d="M108.5 635.5L139.5 635.5M-15.5 635.5L15.5 635.5L46.5 635.5L77.5 635.5L108.5 635.5L139.5 666.5L170.5 666.5L201.5 666.5L232.5 666.5L263.5 666.5L294.5 666.5" stroke="rgba(70, 238, 4, 1)" stroke-width="5.17"></path><path d="M286.75 666.5 a7.75 7.75 0 1 0 15.5 0 a7.75 7.75 0 1 0 -15.5 0zM131.75 635.5 a7.75 7.75 0 1 0 15.5 0 a7.75 7.75 0 1 0 -15.5 0z" fill="rgba(70, 238, 4, 1)"></path><path d="M635.5 294.5L666.5 294.5L697.5 294.5M387.5 294.5L418.5 325.5M356.5 294.5L387.5 325.5M15.5 356.5L46.5 356.5M325.5 294.5L356.5 325.5M-15.5 356.5L15.5 356.5L46.5 325.5L77.5 325.5L108.5 325.5L139.5 325.5L170.5 325.5L201.5 325.5L232.5 325.5L263.5 294.5L294.5 294.5L325.5 294.5L356.5 294.5L387.5 294.5L418.5 294.5L449.5 294.5L480.5 294.5L511.5 294.5L542.5 294.5L573.5 294.5L604.5 294.5L635.5 294.5L666.5 263.5" stroke="rgba(255, 0, 42, 1)" stroke-width="5.17"></path><path d="M658.75 263.5 a7.75 7.75 0 1 0 15.5 0 a7.75 7.75 0 1 0 -15.5 0zM689.75 294.5 a7.75 7.75 0 1 0 15.5 0 a7.75 7.75 0 1 0 -15.5 0zM410.75 325.5 a7.75 7.75 0 1 0 15.5 0 a7.75 7.75 0 1 0 -15.5 0zM379.75 325.5 a7.75 7.75 0 1 0 15.5 0 a7.75 7.75 0 1 0 -15.5 0zM38.75 356.5 a7.75 7.75 0 1 0 15.5 0 a7.75 7.75 0 1 0 -15.5 0zM348.75 325.5 a7.75 7.75 0 1 0 15.5 0 a7.75 7.75 0 1 0 -15.5 0z" fill="rgba(255, 0, 42, 1)"></path><path d="M542.5 728.5L573.5 697.5M325.5 697.5L356.5 666.5L387.5 666.5L418.5 666.5L449.5 666.5L480.5 666.5L511.5 635.5L542.5 635.5M604.5 728.5L635.5 697.5L666.5 697.5L697.5 697.5M387.5 697.5L418.5 697.5L449.5 697.5L480.5 697.5L511.5 697.5L542.5 697.5L573.5 666.5L604.5 666.5L635.5 666.5L666.5 666.5L697.5 666.5L728.5 666.5M945.5 728.5L976.5 697.5L1007.5 697.5L1038.5 697.5M883.5 728.5L914.5 697.5M1069.5 728.5L1100.5 697.5L1131.5 697.5L1162.5 697.5L1193.5 697.5L1224.5 697.5M1100.5 728.5L1131.5 759.5L1162.5 759.5L1193.5 759.5L1224.5 759.5L1255.5 759.5M77.5 666.5L108.5 697.5M-15.5 666.5L15.5 666.5L46.5 666.5L77.5 666.5L108.5 666.5L139.5 697.5L170.5 697.5L201.5 697.5L232.5 697.5L263.5 697.5L294.5 697.5L325.5 697.5L356.5 697.5L387.5 697.5L418.5 728.5L449.5 728.5L480.5 728.5L511.5 728.5L542.5 728.5L573.5 728.5L604.5 728.5L635.5 728.5L666.5 728.5L697.5 728.5L728.5 728.5L759.5 728.5L790.5 728.5L821.5 728.5L852.5 728.5L883.5 728.5L914.5 728.5L945.5 728.5L976.5 728.5L1007.5 728.5L1038.5 728.5L1069.5 728.5L1100.5 728.5L1131.5 728.5" stroke="rgba(191, 238, 4, 1)" stroke-width="5.17"></path><path d="M1123.75 728.5 a7.75 7.75 0 1 0 15.5 0 a7.75 7.75 0 1 0 -15.5 0zM565.75 697.5 a7.75 7.75 0 1 0 15.5 0 a7.75 7.75 0 1 0 -15.5 0zM534.75 635.5 a7.75 7.75 0 1 0 15.5 0 a7.75 7.75 0 1 0 -15.5 0zM689.75 697.5 a7.75 7.75 0 1 0 15.5 0 a7.75 7.75 0 1 0 -15.5 0zM720.75 666.5 a7.75 7.75 0 1 0 15.5 0 a7.75 7.75 0 1 0 -15.5 0zM1030.75 697.5 a7.75 7.75 0 1 0 15.5 0 a7.75 7.75 0 1 0 -15.5 0zM906.75 697.5 a7.75 7.75 0 1 0 15.5 0 a7.75 7.75 0 1 0 -15.5 0zM1216.75 697.5 a7.75 7.75 0 1 0 15.5 0 a7.75 7.75 0 1 0 -15.5 0zM1247.75 759.5 a7.75 7.75 0 1 0 15.5 0 a7.75 7.75 0 1 0 -15.5 0zM100.75 697.5 a7.75 7.75 0 1 0 15.5 0 a7.75 7.75 0 1 0 -15.5 0z" fill="rgba(191, 238, 4, 1)"></path><path d="M945.5 232.5L976.5 263.5L1007.5 263.5L1038.5 263.5M790.5 232.5L821.5 201.5L852.5 170.5M883.5 201.5L914.5 201.5L945.5 201.5L976.5 201.5M759.5 232.5L790.5 263.5L821.5 263.5L852.5 263.5L883.5 263.5L914.5 263.5L945.5 263.5M697.5 232.5L728.5 263.5M-15.5 325.5L15.5 325.5L46.5 294.5L77.5 294.5L108.5 294.5L139.5 294.5L170.5 294.5L201.5 294.5L232.5 294.5L263.5 263.5L294.5 263.5L325.5 263.5L356.5 263.5L387.5 263.5L418.5 263.5L449.5 263.5L480.5 263.5L511.5 263.5L542.5 263.5L573.5 263.5L604.5 263.5L635.5 263.5L666.5 232.5L697.5 232.5L728.5 232.5L759.5 232.5L790.5 232.5L821.5 232.5L852.5 201.5L883.5 201.5L914.5 232.5L945.5 232.5L976.5 232.5" stroke="rgba(255, 0, 42, 1)" stroke-width="5.17"></path><path d="M968.75 232.5 a7.75 7.75 0 1 0 15.5 0 a7.75 7.75 0 1 0 -15.5 0zM1030.75 263.5 a7.75 7.75 0 1 0 15.5 0 a7.75 7.75 0 1 0 -15.5 0zM844.75 170.5 a7.75 7.75 0 1 0 15.5 0 a7.75 7.75 0 1 0 -15.5 0zM968.75 201.5 a7.75 7.75 0 1 0 15.5 0 a7.75 7.75 0 1 0 -15.5 0zM937.75 263.5 a7.75 7.75 0 1 0 15.5 0 a7.75 7.75 0 1 0 -15.5 0zM720.75 263.5 a7.75 7.75 0 1 0 15.5 0 a7.75 7.75 0 1 0 -15.5 0z" fill="rgba(255, 0, 42, 1)"></path><path d="M-15.5 697.5L15.5 697.5" stroke="rgba(3, 75, 219, 1)" stroke-width="5.17"></path><path d="M7.75 697.5 a7.75 7.75 0 1 0 15.5 0 a7.75 7.75 0 1 0 -15.5 0z" fill="rgba(3, 75, 219, 1)"></path><path d="M728.5 201.5L759.5 201.5L790.5 201.5L821.5 170.5M-15.5 294.5L15.5 294.5L46.5 263.5L77.5 263.5L108.5 263.5L139.5 263.5L170.5 263.5L201.5 263.5L232.5 263.5L263.5 232.5L294.5 232.5L325.5 232.5L356.5 232.5L387.5 232.5L418.5 232.5L449.5 232.5L480.5 232.5L511.5 232.5L542.5 232.5L573.5 232.5L604.5 232.5L635.5 232.5L666.5 201.5L697.5 201.5L728.5 201.5L759.5 170.5" stroke="rgba(191, 238, 4, 1)" stroke-width="5.17"></path><path d="M751.75 170.5 a7.75 7.75 0 1 0 15.5 0 a7.75 7.75 0 1 0 -15.5 0zM813.75 170.5 a7.75 7.75 0 1 0 15.5 0 a7.75 7.75 0 1 0 -15.5 0z" fill="rgba(191, 238, 4, 1)"></path><path d="M46.5 728.5L77.5 697.5M542.5 759.5L573.5 790.5L604.5 790.5L635.5 790.5M15.5 728.5L46.5 759.5M325.5 728.5L356.5 759.5L387.5 759.5L418.5 790.5L449.5 790.5L480.5 790.5L511.5 821.5L542.5 821.5M139.5 728.5L170.5 759.5L201.5 759.5L232.5 759.5L263.5 790.5L294.5 790.5L325.5 821.5L356.5 821.5L387.5 821.5L418.5 821.5M294.5 728.5L325.5 759.5L356.5 790.5M-15.5 728.5L15.5 728.5L46.5 728.5L77.5 728.5L108.5 728.5L139.5 728.5L170.5 728.5L201.5 728.5L232.5 728.5L263.5 728.5L294.5 728.5L325.5 728.5L356.5 728.5L387.5 728.5L418.5 759.5L449.5 759.5L480.5 759.5L511.5 759.5L542.5 759.5L573.5 759.5L604.5 759.5L635.5 759.5L666.5 759.5L697.5 759.5L728.5 759.5" stroke="rgba(3, 75, 219, 1)" stroke-width="5.17"></path><path d="M720.75 759.5 a7.75 7.75 0 1 0 15.5 0 a7.75 7.75 0 1 0 -15.5 0zM69.75 697.5 a7.75 7.75 0 1 0 15.5 0 a7.75 7.75 0 1 0 -15.5 0zM627.75 790.5 a7.75 7.75 0 1 0 15.5 0 a7.75 7.75 0 1 0 -15.5 0zM38.75 759.5 a7.75 7.75 0 1 0 15.5 0 a7.75 7.75 0 1 0 -15.5 0zM534.75 821.5 a7.75 7.75 0 1 0 15.5 0 a7.75 7.75 0 1 0 -15.5 0zM410.75 821.5 a7.75 7.75 0 1 0 15.5 0 a7.75 7.75 0 1 0 -15.5 0zM348.75 790.5 a7.75 7.75 0 1 0 15.5 0 a7.75 7.75 0 1 0 -15.5 0z" fill="rgba(3, 75, 219, 1)"></path><path d="M697.5 170.5L728.5 139.5L759.5 108.5L790.5 108.5L821.5 108.5M666.5 170.5L697.5 139.5L728.5 108.5L759.5 77.5L790.5 77.5L821.5 77.5L852.5 77.5L883.5 77.5M883.5 139.5L914.5 108.5L945.5 77.5L976.5 77.5L1007.5 108.5M852.5 139.5L883.5 108.5M511.5 201.5L542.5 170.5L573.5 170.5L604.5 170.5L635.5 170.5M1007.5 139.5L1038.5 170.5L1069.5 170.5L1100.5 201.5M170.5 232.5L201.5 201.5L232.5 201.5L263.5 170.5L294.5 170.5L325.5 170.5L356.5 170.5L387.5 170.5M77.5 232.5L108.5 201.5L139.5 201.5L170.5 201.5L201.5 170.5L232.5 170.5M1131.5 139.5L1162.5 170.5L1193.5 201.5L1224.5 201.5L1255.5 201.5M-15.5 263.5L15.5 263.5L46.5 232.5L77.5 232.5L108.5 232.5L139.5 232.5L170.5 232.5L201.5 232.5L232.5 232.5L263.5 201.5L294.5 201.5L325.5 201.5L356.5 201.5L387.5 201.5L418.5 201.5L449.5 201.5L480.5 201.5L511.5 201.5L542.5 201.5L573.5 201.5L604.5 201.5L635.5 201.5L666.5 170.5L697.5 170.5L728.5 170.5L759.5 139.5L790.5 139.5L821.5 139.5L852.5 139.5L883.5 139.5L914.5 139.5L945.5 139.5L976.5 139.5L1007.5 139.5L1038.5 139.5L1069.5 139.5L1100.5 139.5L1131.5 139.5L1162.5 139.5" stroke="rgba(191, 238, 4, 1)" stroke-width="5.17"></path><path d="M1154.75 139.5 a7.75 7.75 0 1 0 15.5 0 a7.75 7.75 0 1 0 -15.5 0zM813.75 108.5 a7.75 7.75 0 1 0 15.5 0 a7.75 7.75 0 1 0 -15.5 0zM875.75 77.5 a7.75 7.75 0 1 0 15.5 0 a7.75 7.75 0 1 0 -15.5 0zM999.75 108.5 a7.75 7.75 0 1 0 15.5 0 a7.75 7.75 0 1 0 -15.5 0zM875.75 108.5 a7.75 7.75 0 1 0 15.5 0 a7.75 7.75 0 1 0 -15.5 0zM627.75 170.5 a7.75 7.75 0 1 0 15.5 0 a7.75 7.75 0 1 0 -15.5 0zM1092.75 201.5 a7.75 7.75 0 1 0 15.5 0 a7.75 7.75 0 1 0 -15.5 0zM379.75 170.5 a7.75 7.75 0 1 0 15.5 0 a7.75 7.75 0 1 0 -15.5 0zM224.75 170.5 a7.75 7.75 0 1 0 15.5 0 a7.75 7.75 0 1 0 -15.5 0zM1247.75 201.5 a7.75 7.75 0 1 0 15.5 0 a7.75 7.75 0 1 0 -15.5 0z" fill="rgba(191, 238, 4, 1)"></path></g></g><defs><mask id="SvgjsMask1602"><rect width="1440" height="1000" fill="#ffffff"></rect></mask><mask id="SvgjsMask1603"><rect width="1440" height="1000" fill="white"></rect><path d="M42.62 511.5 a3.88 3.88 0 1 0 7.76 0 a3.88 3.88 0 1 0 -7.76 0z" fill="black"></path><path d="M414.62 480.5 a3.88 3.88 0 1 0 7.76 0 a3.88 3.88 0 1 0 -7.76 0zM135.62 511.5 a3.88 3.88 0 1 0 7.76 0 a3.88 3.88 0 1 0 -7.76 0zM228.62 511.5 a3.88 3.88 0 1 0 7.76 0 a3.88 3.88 0 1 0 -7.76 0zM166.62 480.5 a3.88 3.88 0 1 0 7.76 0 a3.88 3.88 0 1 0 -7.76 0z" fill="black"></path><path d="M1220.62 480.5 a3.88 3.88 0 1 0 7.76 0 a3.88 3.88 0 1 0 -7.76 0zM1251.62 511.5 a3.88 3.88 0 1 0 7.76 0 a3.88 3.88 0 1 0 -7.76 0zM414.62 542.5 a3.88 3.88 0 1 0 7.76 0 a3.88 3.88 0 1 0 -7.76 0zM352.62 542.5 a3.88 3.88 0 1 0 7.76 0 a3.88 3.88 0 1 0 -7.76 0zM1189.62 449.5 a3.88 3.88 0 1 0 7.76 0 a3.88 3.88 0 1 0 -7.76 0zM1251.62 418.5 a3.88 3.88 0 1 0 7.76 0 a3.88 3.88 0 1 0 -7.76 0zM1251.62 387.5 a3.88 3.88 0 1 0 7.76 0 a3.88 3.88 0 1 0 -7.76 0zM941.62 573.5 a3.88 3.88 0 1 0 7.76 0 a3.88 3.88 0 1 0 -7.76 0zM507.62 511.5 a3.88 3.88 0 1 0 7.76 0 a3.88 3.88 0 1 0 -7.76 0zM1158.62 449.5 a3.88 3.88 0 1 0 7.76 0 a3.88 3.88 0 1 0 -7.76 0zM476.62 511.5 a3.88 3.88 0 1 0 7.76 0 a3.88 3.88 0 1 0 -7.76 0z" fill="black"></path><path d="M879.62 511.5 a3.88 3.88 0 1 0 7.76 0 a3.88 3.88 0 1 0 -7.76 0zM662.62 480.5 a3.88 3.88 0 1 0 7.76 0 a3.88 3.88 0 1 0 -7.76 0zM817.62 480.5 a3.88 3.88 0 1 0 7.76 0 a3.88 3.88 0 1 0 -7.76 0zM259.62 418.5 a3.88 3.88 0 1 0 7.76 0 a3.88 3.88 0 1 0 -7.76 0zM383.62 418.5 a3.88 3.88 0 1 0 7.76 0 a3.88 3.88 0 1 0 -7.76 0zM538.62 418.5 a3.88 3.88 0 1 0 7.76 0 a3.88 3.88 0 1 0 -7.76 0zM228.62 418.5 a3.88 3.88 0 1 0 7.76 0 a3.88 3.88 0 1 0 -7.76 0zM321.62 418.5 a3.88 3.88 0 1 0 7.76 0 a3.88 3.88 0 1 0 -7.76 0z" fill="black"></path><path d="M848.62 573.5 a3.88 3.88 0 1 0 7.76 0 a3.88 3.88 0 1 0 -7.76 0zM817.62 604.5 a3.88 3.88 0 1 0 7.76 0 a3.88 3.88 0 1 0 -7.76 0zM1065.62 635.5 a3.88 3.88 0 1 0 7.76 0 a3.88 3.88 0 1 0 -7.76 0zM321.62 542.5 a3.88 3.88 0 1 0 7.76 0 a3.88 3.88 0 1 0 -7.76 0zM290.62 542.5 a3.88 3.88 0 1 0 7.76 0 a3.88 3.88 0 1 0 -7.76 0z" fill="black"></path><path d="M1220.62 356.5 a3.88 3.88 0 1 0 7.76 0 a3.88 3.88 0 1 0 -7.76 0zM1158.62 325.5 a3.88 3.88 0 1 0 7.76 0 a3.88 3.88 0 1 0 -7.76 0zM631.62 325.5 a3.88 3.88 0 1 0 7.76 0 a3.88 3.88 0 1 0 -7.76 0zM1251.62 325.5 a3.88 3.88 0 1 0 7.76 0 a3.88 3.88 0 1 0 -7.76 0zM1003.62 387.5 a3.88 3.88 0 1 0 7.76 0 a3.88 3.88 0 1 0 -7.76 0zM166.62 418.5 a3.88 3.88 0 1 0 7.76 0 a3.88 3.88 0 1 0 -7.76 0zM1003.62 325.5 a3.88 3.88 0 1 0 7.76 0 a3.88 3.88 0 1 0 -7.76 0zM1003.62 449.5 a3.88 3.88 0 1 0 7.76 0 a3.88 3.88 0 1 0 -7.76 0zM1189.62 294.5 a3.88 3.88 0 1 0 7.76 0 a3.88 3.88 0 1 0 -7.76 0zM941.62 387.5 a3.88 3.88 0 1 0 7.76 0 a3.88 3.88 0 1 0 -7.76 0zM941.62 294.5 a3.88 3.88 0 1 0 7.76 0 a3.88 3.88 0 1 0 -7.76 0z" fill="black"></path><path d="M662.62 604.5 a3.88 3.88 0 1 0 7.76 0 a3.88 3.88 0 1 0 -7.76 0zM290.62 635.5 a3.88 3.88 0 1 0 7.76 0 a3.88 3.88 0 1 0 -7.76 0zM445.62 635.5 a3.88 3.88 0 1 0 7.76 0 a3.88 3.88 0 1 0 -7.76 0zM631.62 635.5 a3.88 3.88 0 1 0 7.76 0 a3.88 3.88 0 1 0 -7.76 0zM197.62 635.5 a3.88 3.88 0 1 0 7.76 0 a3.88 3.88 0 1 0 -7.76 0zM166.62 635.5 a3.88 3.88 0 1 0 7.76 0 a3.88 3.88 0 1 0 -7.76 0z" fill="black"></path><path d="M259.62 356.5 a3.88 3.88 0 1 0 7.76 0 a3.88 3.88 0 1 0 -7.76 0zM104.62 356.5 a3.88 3.88 0 1 0 7.76 0 a3.88 3.88 0 1 0 -7.76 0z" fill="black"></path><path d="M290.62 666.5 a3.88 3.88 0 1 0 7.76 0 a3.88 3.88 0 1 0 -7.76 0zM135.62 635.5 a3.88 3.88 0 1 0 7.76 0 a3.88 3.88 0 1 0 -7.76 0z" fill="black"></path><path d="M662.62 263.5 a3.88 3.88 0 1 0 7.76 0 a3.88 3.88 0 1 0 -7.76 0zM693.62 294.5 a3.88 3.88 0 1 0 7.76 0 a3.88 3.88 0 1 0 -7.76 0zM414.62 325.5 a3.88 3.88 0 1 0 7.76 0 a3.88 3.88 0 1 0 -7.76 0zM383.62 325.5 a3.88 3.88 0 1 0 7.76 0 a3.88 3.88 0 1 0 -7.76 0zM42.62 356.5 a3.88 3.88 0 1 0 7.76 0 a3.88 3.88 0 1 0 -7.76 0zM352.62 325.5 a3.88 3.88 0 1 0 7.76 0 a3.88 3.88 0 1 0 -7.76 0z" fill="black"></path><path d="M1127.62 728.5 a3.88 3.88 0 1 0 7.76 0 a3.88 3.88 0 1 0 -7.76 0zM569.62 697.5 a3.88 3.88 0 1 0 7.76 0 a3.88 3.88 0 1 0 -7.76 0zM538.62 635.5 a3.88 3.88 0 1 0 7.76 0 a3.88 3.88 0 1 0 -7.76 0zM693.62 697.5 a3.88 3.88 0 1 0 7.76 0 a3.88 3.88 0 1 0 -7.76 0zM724.62 666.5 a3.88 3.88 0 1 0 7.76 0 a3.88 3.88 0 1 0 -7.76 0zM1034.62 697.5 a3.88 3.88 0 1 0 7.76 0 a3.88 3.88 0 1 0 -7.76 0zM910.62 697.5 a3.88 3.88 0 1 0 7.76 0 a3.88 3.88 0 1 0 -7.76 0zM1220.62 697.5 a3.88 3.88 0 1 0 7.76 0 a3.88 3.88 0 1 0 -7.76 0zM1251.62 759.5 a3.88 3.88 0 1 0 7.76 0 a3.88 3.88 0 1 0 -7.76 0zM104.62 697.5 a3.88 3.88 0 1 0 7.76 0 a3.88 3.88 0 1 0 -7.76 0z" fill="black"></path><path d="M972.62 232.5 a3.88 3.88 0 1 0 7.76 0 a3.88 3.88 0 1 0 -7.76 0zM1034.62 263.5 a3.88 3.88 0 1 0 7.76 0 a3.88 3.88 0 1 0 -7.76 0zM848.62 170.5 a3.88 3.88 0 1 0 7.76 0 a3.88 3.88 0 1 0 -7.76 0zM972.62 201.5 a3.88 3.88 0 1 0 7.76 0 a3.88 3.88 0 1 0 -7.76 0zM941.62 263.5 a3.88 3.88 0 1 0 7.76 0 a3.88 3.88 0 1 0 -7.76 0zM724.62 263.5 a3.88 3.88 0 1 0 7.76 0 a3.88 3.88 0 1 0 -7.76 0z" fill="black"></path><path d="M11.62 697.5 a3.88 3.88 0 1 0 7.76 0 a3.88 3.88 0 1 0 -7.76 0z" fill="black"></path><path d="M755.62 170.5 a3.88 3.88 0 1 0 7.76 0 a3.88 3.88 0 1 0 -7.76 0zM817.62 170.5 a3.88 3.88 0 1 0 7.76 0 a3.88 3.88 0 1 0 -7.76 0z" fill="black"></path><path d="M724.62 759.5 a3.88 3.88 0 1 0 7.76 0 a3.88 3.88 0 1 0 -7.76 0zM73.62 697.5 a3.88 3.88 0 1 0 7.76 0 a3.88 3.88 0 1 0 -7.76 0zM631.62 790.5 a3.88 3.88 0 1 0 7.76 0 a3.88 3.88 0 1 0 -7.76 0zM42.62 759.5 a3.88 3.88 0 1 0 7.76 0 a3.88 3.88 0 1 0 -7.76 0zM538.62 821.5 a3.88 3.88 0 1 0 7.76 0 a3.88 3.88 0 1 0 -7.76 0zM414.62 821.5 a3.88 3.88 0 1 0 7.76 0 a3.88 3.88 0 1 0 -7.76 0zM352.62 790.5 a3.88 3.88 0 1 0 7.76 0 a3.88 3.88 0 1 0 -7.76 0z" fill="black"></path><path d="M1158.62 139.5 a3.88 3.88 0 1 0 7.76 0 a3.88 3.88 0 1 0 -7.76 0zM817.62 108.5 a3.88 3.88 0 1 0 7.76 0 a3.88 3.88 0 1 0 -7.76 0zM879.62 77.5 a3.88 3.88 0 1 0 7.76 0 a3.88 3.88 0 1 0 -7.76 0zM1003.62 108.5 a3.88 3.88 0 1 0 7.76 0 a3.88 3.88 0 1 0 -7.76 0zM879.62 108.5 a3.88 3.88 0 1 0 7.76 0 a3.88 3.88 0 1 0 -7.76 0zM631.62 170.5 a3.88 3.88 0 1 0 7.76 0 a3.88 3.88 0 1 0 -7.76 0zM1096.62 201.5 a3.88 3.88 0 1 0 7.76 0 a3.88 3.88 0 1 0 -7.76 0zM383.62 170.5 a3.88 3.88 0 1 0 7.76 0 a3.88 3.88 0 1 0 -7.76 0zM228.62 170.5 a3.88 3.88 0 1 0 7.76 0 a3.88 3.88 0 1 0 -7.76 0zM1251.62 201.5 a3.88 3.88 0 1 0 7.76 0 a3.88 3.88 0 1 0 -7.76 0z" fill="black"></path></mask></defs></svg>